# xmcd
#
# Track frame offsets:
#	150
#	21204
#	34806
#	57913
#	76593
#	99874
#	111737
#	125815
#	141139
#	154823
#	170635
#
# Disc length: 2580 seconds
#
# Revision: 0
# Processed by: cddbd v1.5.1PL0 Copyright (c) Steve Scherf et al.
# Submitted via: dBpowerAMP V4.0
#
DISCID=910a120b
DTITLE=Omar and the Howlers - Monkeyland
DYEAR=1990
DGENRE=Bluesrock
TTITLE0=Monkey Land
TTITLE1=Tonight I Think of You
TTITLE2=Big Town Shakedown
TTITLE3=She's a Woman
TTITLE4=Fire in the Jungle
TTITLE5=Night Shadows
TTITLE6=Modern Man
TTITLE7=Loud Mouth Woman
TTITLE8=Dirty People
TTITLE9=Ding Dong Clock
TTITLE10=Next Big Thing
EXTD=
EXTT0=
EXTT1=
EXTT2=
EXTT3=
EXTT4=
EXTT5=
EXTT6=
EXTT7=
EXTT8=
EXTT9=
EXTT10=
PLAYORDER=
